<?xml version="1.0" encoding="utf-8"?>
<!-- Generator: Adobe Illustrator 24.0.2, SVG Export Plug-In . SVG Version: 6.00 Build 0)  -->
<svg version="1.1" id="Layer_1" xmlns="http://www.w3.org/2000/svg" xmlns:xlink="http://www.w3.org/1999/xlink" x="0px" y="0px"
	 viewBox="0 0 512 512" enable-background="new 0 0 512 512" xml:space="preserve">
<g>
	<g>
		<circle fill="#77D0DE" cx="322.2" cy="195.9" r="118.1"/>
	</g>
</g>
<g>
	<g>
		<g>
			<g>
				<path fill="#FFFFFF" d="M322.2,290.2c-52,0-94.3-42.3-94.3-94.3s42.3-94.3,94.3-94.3c39.2,0,74.7,24.7,88.4,61.4
					c0.7,1.9-0.3,4-2.1,4.7c-1.9,0.7-4-0.3-4.7-2.1c-12.6-33.9-45.4-56.6-81.6-56.6c-48,0-87,39-87,87s39,87,87,87
					c2,0,3.6,1.6,3.6,3.6S324.2,290.2,322.2,290.2z"/>
			</g>
		</g>
	</g>
	<g>
		<g>
			<g>
				<g>
					<polygon fill="#FFFFFF" points="395.3,159.3 413.3,195.8 416,155.2 					"/>
				</g>
			</g>
		</g>
	</g>
</g>
<g>
	<g>
		<g>
			<path fill="#6BA417" d="M160.4,443.1c0.5-2.5,0.8-5.1,0.8-7.7c0-2.6-0.3-5.2-0.8-7.7l14.9-15l-5.8-10.1l-20.4,5.4
				c-1.9-1.7-4-3.3-6.2-4.5c-2.2-1.3-4.6-2.3-7.1-3.1l-5.6-20.4h-11.6l-5.6,20.4c-2.5,0.8-4.8,1.8-7,3.1c-2.2,1.3-4.3,2.8-6.3,4.5
				l-20.4-5.4l-5.9,10.1l14.9,15c-0.5,2.5-0.8,5.1-0.8,7.7c0,2.6,0.3,5.2,0.8,7.7l-14.9,15l5.9,10.1l20.4-5.4c1.9,1.7,4,3.2,6.3,4.5
				c2.2,1.3,4.6,2.4,7,3.1l5.6,20.4h11.6l5.6-20.4c2.5-0.8,4.8-1.9,7.1-3.1c2.2-1.3,4.3-2.8,6.2-4.5l20.4,5.4l5.8-10.1L160.4,443.1z
				 M136.6,456.7c-7.3,4.4-17.2,4.4-24.5,0c-7.5-4.3-12.4-12.6-12.3-21.2c-0.1-8.6,4.8-17,12.3-21.2c7.3-4.3,17.2-4.3,24.5,0
				c7.5,4.3,12.4,12.6,12.3,21.2C149,444.1,144.1,452.4,136.6,456.7z"/>
		</g>
	</g>
</g>
<g>
	<g>
		<g>
			<path fill="#FCD751" d="M144.2,324.8c7.4-1.1,14.7-3.4,21.9-6.8c0.3-3.9,0.3-7.9,0-11.8c-7.2-3.4-14.5-5.6-21.9-6.8
				c-0.7-2.8-1.6-5.5-2.6-8.1c-1.1-2.6-2.4-5.2-3.9-7.6c4.4-6,8-12.8,10.7-20.3c-2.5-3-5.4-5.8-8.4-8.4c-7.4,2.7-14.2,6.3-20.3,10.7
				c-2.4-1.5-5-2.8-7.6-3.9c-2.6-1.1-5.4-2-8.1-2.6c-1.1-7.4-3.4-14.7-6.8-21.9c-3.9-0.3-7.9-0.3-11.8,0c-3.4,7.2-5.6,14.5-6.8,21.9
				c-2.8,0.7-5.5,1.6-8.1,2.6c-2.6,1.1-5.2,2.4-7.6,3.9c-6-4.4-12.8-8-20.3-10.7c-3,2.5-5.8,5.4-8.4,8.4c2.7,7.4,6.3,14.2,10.7,20.3
				c-1.5,2.4-2.8,5-3.9,7.6c-1.1,2.6-2,5.4-2.6,8.1c-7.4,1.1-14.7,3.4-21.9,6.8c-0.3,3.9-0.4,7.9,0,11.8c7.2,3.4,14.5,5.7,21.9,6.8
				c0.7,2.8,1.6,5.5,2.6,8.1c1.1,2.6,2.4,5.2,3.9,7.6c-4.4,6-8,12.8-10.7,20.3c2.5,3,5.4,5.8,8.4,8.4c7.5-2.7,14.2-6.3,20.3-10.7
				c2.4,1.5,5,2.8,7.6,3.9c2.7,1.1,5.4,2,8.1,2.6c1.1,7.4,3.4,14.7,6.8,21.9c3.9,0.3,7.9,0.3,11.8,0c3.4-7.2,5.6-14.5,6.8-21.9
				c2.8-0.7,5.5-1.6,8.1-2.6c2.6-1.1,5.2-2.4,7.6-3.9c6,4.4,12.8,8,20.3,10.7c3-2.6,5.8-5.4,8.3-8.4c-2.7-7.5-6.3-14.3-10.7-20.3
				c1.5-2.4,2.8-5,3.9-7.6C142.7,330.3,143.5,327.6,144.2,324.8z M104.8,344.8c-8.6,3.6-18.4,3.6-27,0c-8.6-3.6-15.6-10.5-19.1-19.1
				c-3.6-8.6-3.6-18.4,0-27c3.5-8.6,10.5-15.6,19.1-19.1c8.6-3.6,18.4-3.6,27,0c8.6,3.6,15.6,10.5,19.1,19.1c3.6,8.6,3.6,18.4,0,27
				C120.3,334.3,113.4,341.2,104.8,344.8z"/>
		</g>
	</g>
</g>
<g>
	<g>
		<path fill="#606466" d="M355,478.8c-2,0-3.6-1.6-3.6-3.6c0-0.6-0.2-16.3,7.1-61.3c1.1-6.6,4.2-19.8,8.5-29
			c0.4-0.9,1.2-1.6,2.2-1.9c1-0.3,2-0.2,2.9,0.3l0.8,0.4c4,2.1,10.6,4.6,31.5,9.5c20.1,4.7,39.4-1,46.5-9.2
			c3.2-3.7,2.3-10.5,0.9-16.6c-0.4-1.7-0.8-3.4-1.2-5.1c-1.2-4.8-2.3-8.9-2-12.2c0.6-6.2,6-9.6,10.9-12.5c1.7-1,3.3-2.1,4.8-3.2
			c1.2-1,2.1-1.9,2.5-2.8c0.2-0.4,0.6-1.3,0.3-1.8c-0.4-0.7-2.5-2-7.9-2.4c-1.8-0.1-3.2-1.6-3.3-3.3c-0.1-1.8,1-3.4,2.8-3.8
			c6.5-1.6,11.5-4.1,12.2-5.3c0-0.1,0.1-1.1-0.4-4.5l-0.3-2.2c-0.5-3-1-6.4-1.2-9.7c-0.2-2.7-0.1-5.1,0.2-7.1
			c0.1-0.7,0.2-1.6,0.5-2.3c0.4-1.4,1.6-2.3,3.1-2.5c8.6-0.9,16.9-5.1,18.4-9.4c1.8-5.1-10.3-22.7-19.1-35.6
			c-11.7-16.9-11.5-38.4-11.2-55.7c0-2.1,0-4.2,0-6.2c0-17.3-10.5-59.7-23.4-79.2c-3.9-5.8-40-56.9-121.3-56.9
			c-94.3,0-138.6,66.4-145.4,111c-5.3,34.9,14.7,88.3,25.5,116.9c2.6,6.9,4.8,12.7,6,16.6c1.2,3.8,2,8.6,2.4,14
			c0.3,4.2,0.3,8.8,0,13.6c-0.4,9.1-5.2,35.4-14.2,78c-0.4,2-2.4,3.2-4.3,2.8c-2-0.4-3.2-2.3-2.8-4.3c8.7-41.7,13.6-68.2,14-76.9
			c0.2-4.5,0.2-8.8,0-12.7c-0.3-4.9-1-9-2-12.3c-1.2-3.9-3.3-9.5-5.9-16.3c-11.8-31.3-31.5-83.8-25.9-120.6
			c7.2-47.1,53.7-117.2,152.6-117.2c85.1,0,123.3,54,127.3,60.1c14,21.2,24.6,65.1,24.6,83.2c0,2,0,4.1,0,6.3
			c-0.2,16.2-0.4,36.5,10,51.5c14.3,20.8,22.9,34,20,42.2C495,287.3,485,292,476,293.6c-0.1,1.4-0.1,2.9,0,4.6
			c0.2,3.1,0.7,6.3,1.1,9.1l0.3,2.3c0.6,3.9,0.8,6.5-0.1,8.5c-1,2.3-3.5,4.2-6.4,5.6c1,0.7,1.7,1.6,2.3,2.6c1,1.7,1.8,4.6,0,8.5
			c-0.9,1.9-2.4,3.7-4.5,5.4c-1.6,1.3-3.5,2.5-5.5,3.7c-3.7,2.3-7.2,4.4-7.4,7c-0.2,2,0.8,6,1.8,9.8c0.4,1.7,0.9,3.5,1.3,5.2
			c1.8,7.9,2.8,16.8-2.5,22.9c-8.4,9.7-30,17-53.7,11.5c-17.4-4-25.5-6.6-30.7-8.9c-3.2,8.2-5.5,18.3-6.4,23.7c-7.2,44-7,59.8-7,60
			C358.6,477.1,357,478.8,355,478.8C355,478.8,355,478.8,355,478.8z"/>
	</g>
</g>
</svg>
